<?xml version="1.0" encoding="utf-8"?>
<!-- Generator: Adobe Illustrator 27.5.0, SVG Export Plug-In . SVG Version: 6.00 Build 0)  -->
<svg version="1.1" xmlns="http://www.w3.org/2000/svg" xmlns:xlink="http://www.w3.org/1999/xlink" x="0px" y="0px"
	  style="enable-background:new 0 0 750 500;" xml:space="preserve">
<g>
		<path style="fill:#E5E5E6;" d="M149.241,382.776c-4.687,4.685-12.286,4.684-16.972-0.002l-51.4-51.4
			c-4.687-4.686-4.688-12.286-0.002-16.973l51.399-51.4c4.686-4.686,12.29-4.689,16.978-0.002l51.399,51.4
			c4.687,4.686,4.683,12.291-0.003,16.977L149.241,382.776z"/>
		<g>
			<g>
				<rect x="87.864" y="339.797" style="fill:#413A66;" width="29.799" height="6.801"/>
				<rect x="117.664" y="346.598" style="fill:#413A66;" width="6.8" height="29.8"/>
				<rect x="87.864" y="320.106" style="fill:#413A66;" width="29.799" height="6.8"/>
				<rect x="137.355" y="270.614" style="fill:#413A66;" width="6.799" height="29.802"/>
				<rect x="157.045" y="270.614" style="fill:#413A66;" width="6.8" height="29.802"/>
				<rect x="163.845" y="300.416" style="fill:#413A66;" width="29.8" height="6.8"/>
				<path style="fill:#413A66;" d="M157.045,307.216v12.891h-12.891v-12.891h-6.799v12.891h-12.891v6.8h12.891v12.891h-12.891v6.801
					h12.891v29.8h6.799v-29.8h12.891v29.8h6.8v-29.8h29.8v-6.801h-29.8v-12.891h29.8v-6.8h-29.8v-12.891H157.045z M157.045,339.797
					h-12.891v-12.891h12.891V339.797z"/>
				<rect x="117.664" y="326.906" style="fill:#413A66;" width="6.8" height="12.891"/>
				<rect x="144.154" y="300.416" style="fill:#413A66;" width="12.891" height="6.8"/>
				<polygon style="fill:#413A66;" points="124.464,307.216 137.355,307.216 137.355,300.416 124.464,300.416 124.464,270.614 
					117.664,270.614 117.664,300.416 87.864,300.416 87.864,307.216 117.664,307.216 117.664,320.106 124.464,320.106 				"/>
			</g>
			
				<radialGradient id="SVGID_00000174588526555816839370000015869636193143635342_" cx="116.7071" cy="296.6314" r="97.4729" gradientUnits="userSpaceOnUse">
				<stop  offset="0" style="stop-color:#7DDAB7"/>
				<stop  offset="0.3338" style="stop-color:#72C5C1"/>
				<stop  offset="0.7128" style="stop-color:#68B5CA"/>
				<stop  offset="1" style="stop-color:#65AFCD"/>
			</radialGradient>
			<path style="fill:url(#SVGID_00000174588526555816839370000015869636193143635342_);" d="M179.212,352.415
				c0,5.273-4.274,9.549-9.547,9.549h-57.82c-5.273,0-9.548-4.275-9.548-9.549v-57.818c0-5.273,4.274-9.547,9.548-9.547h57.82
				c5.273,0,9.547,4.273,9.547,9.547V352.415z"/>
			<path style="fill:#FFFFFF;" d="M158.349,336.732c0,2.411-1.956,4.366-4.368,4.366h-26.452c-2.412,0-4.368-1.955-4.368-4.366
				V310.28c0-2.412,1.956-4.369,4.368-4.369h26.452c2.412,0,4.368,1.957,4.368,4.369V336.732z"/>
			<path style="fill:#413A66;" d="M147.938,270.614c0,3.969-3.217,7.186-7.183,7.186c-3.966,0-7.183-3.217-7.183-7.186
				c0-3.966,3.217-7.181,7.183-7.181C144.721,263.434,147.938,266.648,147.938,270.614z"/>
			<path style="fill:#413A66;" d="M128.246,376.397c0,3.966-3.216,7.183-7.182,7.183c-3.968,0-7.183-3.217-7.183-7.183
				c0-3.969,3.215-7.186,7.183-7.186C125.03,369.212,128.246,372.429,128.246,376.397z"/>
			<path style="fill:#413A66;" d="M167.627,376.397c0,3.966-3.216,7.183-7.183,7.183c-3.966,0-7.183-3.217-7.183-7.183
				c0-3.969,3.217-7.186,7.183-7.186C164.411,369.212,167.627,372.429,167.627,376.397z"/>
			<path style="fill:#413A66;" d="M193.645,330.69c-3.967,0-7.182-3.215-7.182-7.183c0-3.967,3.215-7.184,7.182-7.184
				c3.968,0,7.184,3.217,7.184,7.184C200.828,327.475,197.612,330.69,193.645,330.69z"/>
			<path style="fill:#413A66;" d="M87.864,310.999c-3.968,0-7.184-3.215-7.184-7.183c0-3.967,3.216-7.184,7.184-7.184
				c3.967,0,7.183,3.217,7.183,7.184C95.047,307.784,91.831,310.999,87.864,310.999z"/>
			<path style="fill:#413A66;" d="M87.864,350.379c-3.968,0-7.184-3.215-7.184-7.182c0-3.969,3.216-7.185,7.184-7.185
				c3.967,0,7.183,3.216,7.183,7.185C95.047,347.164,91.831,350.379,87.864,350.379z"/>
		</g>
		<g>
			<g>
				
					<text transform="matrix(1 0 0 1 98.1948 408.5713)" style="fill:#65AFCD; font-family:'Montserrat-Bold'; font-size:17.7379px; letter-spacing:3;">E-TECH</text>
			</g>
			
				<text transform="matrix(1 0 0 1 99.334 419.5322)" style="fill:#413A66; font-family:'Montserrat-Light'; font-size:6.861px; letter-spacing:3;">lorem ipsum</text>
		</g>
	</g>
</svg>
